<svg id="Layer_1" data-name="Layer 1" xmlns="http://www.w3.org/2000/svg" viewBox="0 0 1139.93 755.35"><defs><style>.cls-1{fill:#013223;}.cls-2{fill:#00986d;}</style></defs><path class="cls-1" d="M183.09,266.43H116.24a6.21,6.21,0,0,0-6.21,6.21v123.1a6.21,6.21,0,0,0,6.21,6.21H192.9a6.2,6.2,0,0,1,6.14,7.1L195.68,432a6.21,6.21,0,0,1-6.14,5.31H77.81a6.2,6.2,0,0,1-6.2-6.21V89.73a6.2,6.2,0,0,1,6.2-6.21h109.8a6.2,6.2,0,0,1,6.2,6.21V112.9a6.2,6.2,0,0,1-6.2,6.21H116.24a6.21,6.21,0,0,0-6.21,6.2v99.58a6.21,6.21,0,0,0,6.21,6.21h66.85a6.21,6.21,0,0,1,6.21,6.21v22.92A6.21,6.21,0,0,1,183.09,266.43Z"/><path class="cls-1" d="M239.58,83.52H351a6.21,6.21,0,0,1,6.21,6.21V112.9a6.21,6.21,0,0,1-6.21,6.21H278a6.21,6.21,0,0,0-6.21,6.2V227a6.21,6.21,0,0,0,6.21,6.21h68.16a6.21,6.21,0,0,1,6.21,6.2v23.17a6.21,6.21,0,0,1-6.21,6.21H278A6.21,6.21,0,0,0,271.8,275v156a6.21,6.21,0,0,1-6.2,6.21h-26a6.21,6.21,0,0,1-6.2-6.21V89.73A6.21,6.21,0,0,1,239.58,83.52Z"/><path class="cls-1" d="M764.89,337.46a6.21,6.21,0,0,1,6.2,6.21V358c0,33,11.34,50.66,35.95,50.66,25.13,0,34.94-18.42,34.94-56.45,0-41.25-9.06-57.13-46.35-86.2-37.85-29.63-57.11-47.55-57.11-99.7,0-44.91,13.46-88.08,69.36-87.81,53.25.28,67,35.86,67,80.48v10.32a6.21,6.21,0,0,1-6.2,6.21H842.89a6.2,6.2,0,0,1-6.2-6.21V160c0-29.15-5.66-47.93-29.6-47.93S777,133.12,777,160.65c0,32.52,6.46,45,38.84,69.45,49.29,37.21,64.87,58,64.87,116.76,0,49.75-14.36,95.16-74.35,95.16-57.48,0-73.64-37.61-73.64-84.21V343.67a6.2,6.2,0,0,1,6.2-6.21Z"/><path class="cls-1" d="M919.18,431.07V89.73a6.21,6.21,0,0,1,6.21-6.21h34.88a6.18,6.18,0,0,1,6,4.48c19.69,68.39,66.55,245.86,72.11,273.64h.81c-2.09-47.37-2.65-97.15-2.65-154.85V89.73a6.21,6.21,0,0,1,6.21-6.21h23.75a6.21,6.21,0,0,1,6.21,6.21V431.07a6.21,6.21,0,0,1-6.21,6.21h-33.32a6.18,6.18,0,0,1-6-4.51c-19.41-69.29-67.87-256-74.28-283h-.52c2.37,42.62,3.23,98.74,3.23,162.57V431.07a6.21,6.21,0,0,1-6.21,6.21h-24A6.21,6.21,0,0,1,919.18,431.07Z"/><path class="cls-2" d="M698.84,128.75,693.26,123a8.56,8.56,0,0,0-12.12-.14l-130,127.29a8.57,8.57,0,0,1-12.08-.1l-30.75-31a8.56,8.56,0,0,0-12-.19l-23.73,22.45a8.56,8.56,0,0,0-.21,12.23l68.85,69.93a8.56,8.56,0,0,0,12.81-.68L699.41,140.07A8.58,8.58,0,0,0,698.84,128.75Z"/><path class="cls-1" d="M600.23,405a152.66,152.66,0,0,1-40.32,2.19c-74.75-5.78-134.71-66.21-140-141C413.63,177.17,484.3,102.69,572,102.69a150.44,150.44,0,0,1,28.19,2.68A6.45,6.45,0,0,0,607.88,99V74.34a6.48,6.48,0,0,0-5.37-6.41,194.27,194.27,0,0,0-74,2.34A186.16,186.16,0,0,0,386.17,216C361.74,338,454.39,445,572,445a188,188,0,0,0,30.49-2.52,6.45,6.45,0,0,0,5.35-6.39V411.38A6.45,6.45,0,0,0,600.23,405Z"/><polygon class="cls-1" points="82.6 568.87 105.6 568.87 105.6 559.19 82.6 559.19 82.6 544.74 107.05 544.74 107.05 535.06 82.6 535.06 80.98 535.06 71.38 535.06 71.38 593.97 80.98 593.97 82.6 593.97 107.69 593.97 107.69 584.29 82.6 584.29 82.6 568.87"/><path class="cls-1" d="M146,576a9.26,9.26,0,0,1-2.46,6.78,8.5,8.5,0,0,1-6.34,2.5,8,8,0,0,1-6.13-2.38,8.94,8.94,0,0,1-2.26-6.42V550.07H117.62v25.42q0,9.85,4.16,14.85t11.74,5H134a15,15,0,0,0,8.48-2.26,13.58,13.58,0,0,0,5.08-6.7,21.66,21.66,0,0,0,.81-2.65V594h8.88v-43.9H146Z"/><path class="cls-1" d="M182.83,554.43q-3.06,3.66-3.79,10V550.15h-8.88V594h11.22V571.13c0-3.82,1-6.73,3.1-8.75s5-3,8.76-3h3.07v-9.76h-1.62Q186.86,549.59,182.83,554.43Z"/><path class="cls-1" d="M242.11,555.44a22.07,22.07,0,0,0-7.55-5,28.56,28.56,0,0,0-20,0,22,22,0,0,0-7.55,5,22.25,22.25,0,0,0-4.76,7.26,22.51,22.51,0,0,0-1.66,8.6V573a22.85,22.85,0,0,0,1.58,8.39,21.62,21.62,0,0,0,4.64,7.23,22.11,22.11,0,0,0,7.5,5,29,29,0,0,0,20.42,0,22.25,22.25,0,0,0,7.51-5,21.77,21.77,0,0,0,4.64-7.23,22.84,22.84,0,0,0,1.57-8.39V571.3a23.26,23.26,0,0,0-1.61-8.6A21.82,21.82,0,0,0,242.11,555.44Zm-6.34,23.72a11.47,11.47,0,0,1-4.28,4.93,14.21,14.21,0,0,1-13.88,0,11.83,11.83,0,0,1-4.32-4.93,16.16,16.16,0,0,1-1.49-7.06,15.82,15.82,0,0,1,1.54-7.14,12,12,0,0,1,4.39-4.92,13.69,13.69,0,0,1,13.64,0,11.75,11.75,0,0,1,4.36,4.92,17.88,17.88,0,0,1,0,14.2Z"/><path class="cls-1" d="M299.24,555.24a18.62,18.62,0,0,0-6.45-4.76,20.14,20.14,0,0,0-8.44-1.7,19.08,19.08,0,0,0-9.2,2.22,16.25,16.25,0,0,0-6.57,6.74,19.4,19.4,0,0,0-1.42,3.31v-10.9h-8.87v60H269.5v-22a15.43,15.43,0,0,0,5.86,5.23,19.65,19.65,0,0,0,9,2.06,20.12,20.12,0,0,0,8.48-1.74,18.83,18.83,0,0,0,6.49-4.84,21.48,21.48,0,0,0,4.12-7.18,26.86,26.86,0,0,0,1.41-8.84v-1.7a25.87,25.87,0,0,0-1.45-8.75A21.51,21.51,0,0,0,299.24,555.24Zm-7.14,24a11.94,11.94,0,0,1-4.24,5,11.28,11.28,0,0,1-6.33,1.77,12.84,12.84,0,0,1-6-1.45,12,12,0,0,1-4.6-4.12,11.29,11.29,0,0,1-1.78-6.45v-3.23a12.71,12.71,0,0,1,1.74-6.78,11.46,11.46,0,0,1,4.52-4.28,13,13,0,0,1,6.09-1.45,11.43,11.43,0,0,1,6.33,1.74,11.79,11.79,0,0,1,4.24,4.8,16.09,16.09,0,0,1,1.53,7.26A16.53,16.53,0,0,1,292.1,579.25Z"/><path class="cls-1" d="M345.73,551.73a21.49,21.49,0,0,0-11.91-3.11,22.44,22.44,0,0,0-9.52,1.9,20.38,20.38,0,0,0-6.9,5.08,21.78,21.78,0,0,0-4.2,7.26,25.64,25.64,0,0,0-1.41,8.44v1.53a24.77,24.77,0,0,0,1.41,8.23,22.57,22.57,0,0,0,4.2,7.3,20,20,0,0,0,7,5.21,26,26,0,0,0,19.53.08,18.22,18.22,0,0,0,7-5.25,18.52,18.52,0,0,0,3.72-7.9H344.31a7.35,7.35,0,0,1-3.3,4.07,12.21,12.21,0,0,1-6.7,1.66,11.76,11.76,0,0,1-6.78-1.82,10.78,10.78,0,0,1-4-5,17.71,17.71,0,0,1-1.12-4.64h32.92v-4A24.8,24.8,0,0,0,353,559.88,19.7,19.7,0,0,0,345.73,551.73Zm-18.2,7.86a11.21,11.21,0,0,1,6.29-1.69,11.09,11.09,0,0,1,6.18,1.61,9.71,9.71,0,0,1,3.67,4.6,16.25,16.25,0,0,1,1,3.8h-22a16.37,16.37,0,0,1,1-3.43A10.51,10.51,0,0,1,327.53,559.59Z"/><path class="cls-1" d="M391.08,551.28a30.84,30.84,0,0,0-11.25-1.77c-1.46,0-3,0-4.65,0s-3.24.09-4.8.2-3,.21-4.19.32v9.52c1.5-.1,3.21-.2,5.12-.28s3.81-.15,5.69-.2,3.5-.08,4.84-.08q3.87,0,5.73,1.85t1.86,5.66v.4h-9a30.36,30.36,0,0,0-10.13,1.53,14.28,14.28,0,0,0-6.7,4.6,12.58,12.58,0,0,0-2.38,7.91,14,14,0,0,0,2,7.59,12.93,12.93,0,0,0,5.57,4.84,19.36,19.36,0,0,0,8.35,1.69,16.8,16.8,0,0,0,7.79-1.65,12.1,12.1,0,0,0,5-4.8,14.83,14.83,0,0,0,1.33-3.14V594h8.88V566.78q0-6.13-2.3-9.93A13.39,13.39,0,0,0,391.08,551.28Zm-6.45,35a11,11,0,0,1-4.32.84,8.55,8.55,0,0,1-5.93-1.85,6.2,6.2,0,0,1-2.06-4.85,6.33,6.33,0,0,1,2.06-4.88,8.46,8.46,0,0,1,5.93-1.89h9.12v4.11a11.3,11.3,0,0,1-1.49,5.61A7.53,7.53,0,0,1,384.63,586.27Z"/><path class="cls-1" d="M448.42,553.82q-4-5-11.86-5h-.49a15.83,15.83,0,0,0-8.75,2.26,13.78,13.78,0,0,0-5.29,6.74,21.7,21.7,0,0,0-1,3.19V550.15h-8.87V594H423.4V568.23a9.2,9.2,0,0,1,2.55-6.82,9,9,0,0,1,6.66-2.54,8.15,8.15,0,0,1,6.33,2.5,9.31,9.31,0,0,1,2.3,6.54V594h11.22v-25.1Q452.46,558.87,448.42,553.82Z"/><polygon class="cls-1" points="492.65 535.06 482.8 535.06 482.8 593.97 494.26 593.97 494.26 569.43 516.21 569.36 516.21 559.67 494.26 559.75 494.26 544.74 517.34 544.74 517.34 535.06 494.26 535.06 492.65 535.06"/><path class="cls-1" d="M551.84,551.28a30.8,30.8,0,0,0-11.25-1.77c-1.46,0-3,0-4.64,0s-3.25.09-4.81.2-3,.21-4.19.32v9.52c1.5-.1,3.21-.2,5.12-.28s3.81-.15,5.69-.2,3.5-.08,4.84-.08q3.89,0,5.73,1.85t1.86,5.66v.4h-9a30.36,30.36,0,0,0-10.13,1.53,14.2,14.2,0,0,0-6.69,4.6A12.52,12.52,0,0,0,522,581a14,14,0,0,0,2,7.59,13,13,0,0,0,5.57,4.84,19.36,19.36,0,0,0,8.35,1.69,16.77,16.77,0,0,0,7.79-1.65,12,12,0,0,0,5-4.8,15.38,15.38,0,0,0,1.34-3.14V594h8.87V566.78q0-6.13-2.3-9.93A13.39,13.39,0,0,0,551.84,551.28Zm-6.45,35a11,11,0,0,1-4.32.84,8.55,8.55,0,0,1-5.93-1.85,6.23,6.23,0,0,1-2.06-4.85,6.37,6.37,0,0,1,2.06-4.88,8.46,8.46,0,0,1,5.93-1.89h9.12v4.11a11.2,11.2,0,0,1-1.49,5.61A7.48,7.48,0,0,1,545.39,586.27Z"/><path class="cls-1" d="M600.75,581.87a8.44,8.44,0,0,1-3.35,2.9,11,11,0,0,1-5,1.05,10.61,10.61,0,0,1-6.34-1.77,10.36,10.36,0,0,1-3.63-4.93,20,20,0,0,1-1.17-7,19.5,19.5,0,0,1,1.21-7.14,10.59,10.59,0,0,1,3.67-4.88,10.25,10.25,0,0,1,6.18-1.78,9.64,9.64,0,0,1,6.74,2.26,8.86,8.86,0,0,1,2.86,5.65h10.9a18,18,0,0,0-3-9.2,18.42,18.42,0,0,0-7.22-6.17,25.1,25.1,0,0,0-19.9-.32,20.7,20.7,0,0,0-7,5.08,21.52,21.52,0,0,0-4.23,7.26,25.65,25.65,0,0,0-1.42,8.52v1.53a25.25,25.25,0,0,0,1.38,8.23,21.54,21.54,0,0,0,4.15,7.26,20.34,20.34,0,0,0,6.94,5.17,25.52,25.52,0,0,0,20.26-.32,19.05,19.05,0,0,0,7.34-6.26,17.85,17.85,0,0,0,3.11-9.32h-10.9A9.8,9.8,0,0,1,600.75,581.87Z"/><path class="cls-1" d="M634,537.8H623.55l0,12.35h-7v8.23h7l0,19.13q0,6.38,1.94,10.13a11,11,0,0,0,5.85,5.33,27.15,27.15,0,0,0,10,1.57h6.3v-9.6h-6.86a6.06,6.06,0,0,1-6.7-6.7l0-19.86h13.52v-8.23H634Z"/><rect class="cls-1" x="653.25" y="566.37" width="21.43" height="9.85"/><path class="cls-1" d="M723.47,581.59a18.75,18.75,0,0,1-11.18,3.26,19.34,19.34,0,0,1-7.95-1.53,15.81,15.81,0,0,1-5.77-4.32,18.68,18.68,0,0,1-3.51-6.49,26.77,26.77,0,0,1-1.17-8.07,27.34,27.34,0,0,1,1.17-8.24,19,19,0,0,1,3.43-6.45,15.06,15.06,0,0,1,5.65-4.24,19.12,19.12,0,0,1,7.74-1.49,19.79,19.79,0,0,1,7.67,1.41,13.82,13.82,0,0,1,5.61,4.2,14.43,14.43,0,0,1,2.87,6.82h11.54a26,26,0,0,0-4.28-12.15,23.77,23.77,0,0,0-9.48-8.07,31.73,31.73,0,0,0-13.93-2.87A31,31,0,0,0,698.61,536a26.28,26.28,0,0,0-9.24,7,29.09,29.09,0,0,0-5.37,9.68,34.64,34.64,0,0,0-1.73,10.82v1.77A33.7,33.7,0,0,0,684,575.49a30.57,30.57,0,0,0,5.29,9.85,26.78,26.78,0,0,0,9.32,7.34,34.67,34.67,0,0,0,28.16-.32,25,25,0,0,0,9.53-8.39,26.8,26.8,0,0,0,4.27-11.54H729A13.49,13.49,0,0,1,723.47,581.59Z"/><path class="cls-1" d="M774.35,548.78h-.48a13.17,13.17,0,0,0-13.32,8.84V535.06H749.33V594h11.22V568.63a9.91,9.91,0,0,1,2.54-7.06,8.73,8.73,0,0,1,6.66-2.7,8.34,8.34,0,0,1,6.25,2.42,9,9,0,0,1,2.38,6.62V594H789.6V569q0-9.84-3.87-15T774.35,548.78Z"/><path class="cls-1" d="M832.66,551.73a21.49,21.49,0,0,0-11.91-3.11,22.44,22.44,0,0,0-9.52,1.9,20.38,20.38,0,0,0-6.9,5.08,22,22,0,0,0-4.2,7.26,25.64,25.64,0,0,0-1.41,8.44v1.53a24.77,24.77,0,0,0,1.41,8.23,22.76,22.76,0,0,0,4.2,7.3,20,20,0,0,0,7,5.21,26,26,0,0,0,19.53.08,18.22,18.22,0,0,0,7-5.25,18.52,18.52,0,0,0,3.72-7.9H831.25a7.41,7.41,0,0,1-3.31,4.07,12.21,12.21,0,0,1-6.7,1.66,11.76,11.76,0,0,1-6.78-1.82,10.78,10.78,0,0,1-4-5,17.71,17.71,0,0,1-1.12-4.64H842.3v-4a24.66,24.66,0,0,0-2.42-10.85A19.7,19.7,0,0,0,832.66,551.73Zm-18.2,7.86a11.21,11.21,0,0,1,6.29-1.69,11.09,11.09,0,0,1,6.18,1.61,9.71,9.71,0,0,1,3.67,4.6,16.25,16.25,0,0,1,1,3.8h-22a15.79,15.79,0,0,1,1-3.43A10.43,10.43,0,0,1,814.46,559.59Z"/><path class="cls-1" d="M879.46,581.87a8.48,8.48,0,0,1-3.34,2.9,11.09,11.09,0,0,1-5,1.05,10.58,10.58,0,0,1-6.33-1.77,10.3,10.3,0,0,1-3.63-4.93,19.73,19.73,0,0,1-1.18-7,19.49,19.49,0,0,1,1.22-7.14,10.52,10.52,0,0,1,3.67-4.88A10.24,10.24,0,0,1,871,558.3a9.62,9.62,0,0,1,6.74,2.26,8.87,8.87,0,0,1,2.87,5.65h10.89a17.9,17.9,0,0,0-3-9.2,18.42,18.42,0,0,0-7.22-6.17,25.07,25.07,0,0,0-19.89-.32,20.6,20.6,0,0,0-7,5.08,21.38,21.38,0,0,0-4.24,7.26,25.9,25.9,0,0,0-1.41,8.52v1.53a25.24,25.24,0,0,0,1.37,8.23,21.56,21.56,0,0,0,4.16,7.26,20.15,20.15,0,0,0,6.94,5.17,25.49,25.49,0,0,0,20.25-.32,19.16,19.16,0,0,0,7.35-6.26,17.84,17.84,0,0,0,3.1-9.32H881A9.81,9.81,0,0,1,879.46,581.87Z"/><polygon class="cls-1" points="940.68 550.15 928.98 550.15 912.11 571.25 912.11 535.06 900.89 535.06 900.89 593.97 912.11 593.97 912.11 573.48 916.87 573.48 931.56 593.97 944.23 593.97 925.77 568.84 940.68 550.15"/><path class="cls-1" d="M956.9,544.91c2.2,0,3.82-.58,4.84-1.74a6.39,6.39,0,0,0,1.53-4.4,6.27,6.27,0,0,0-1.53-4.36c-1-1.13-2.64-1.69-4.84-1.69a6.35,6.35,0,0,0-4.88,1.69,6.17,6.17,0,0,0-1.58,4.36,5.76,5.76,0,0,0,6.46,6.14Z"/><polygon class="cls-1" points="946.65 550.15 946.65 558.54 952.78 558.54 952.78 593.97 964 593.97 964 558.54 964 550.15 952.78 550.15 946.65 550.15"/><path class="cls-1" d="M1001.29,548.78h-.49a15.81,15.81,0,0,0-8.75,2.26,13.67,13.67,0,0,0-5.29,6.74,21.7,21.7,0,0,0-1,3.19V550.15h-8.88V594h11.22V568.23a9.23,9.23,0,0,1,2.54-6.82,9,9,0,0,1,6.66-2.54,8.19,8.19,0,0,1,6.34,2.5,9.31,9.31,0,0,1,2.3,6.54V594h11.21v-25.1q0-10-4-15T1001.29,548.78Z"/><path class="cls-1" d="M1063.19,550.15v9c-.18-.42-.37-.83-.57-1.22a16.13,16.13,0,0,0-6.25-6.78,18.3,18.3,0,0,0-9.41-2.34,21.34,21.34,0,0,0-8.39,1.61A18.79,18.79,0,0,0,1032,555a21,21,0,0,0-4.23,7,24.2,24.2,0,0,0-1.5,8.59v1.69a25.28,25.28,0,0,0,1.46,8.64,21.4,21.4,0,0,0,4.07,7,18.74,18.74,0,0,0,6.3,4.68,19.26,19.26,0,0,0,8.19,1.7,17.72,17.72,0,0,0,9-2.22,15.88,15.88,0,0,0,6.13-6.46l.08-.16v4a14.23,14.23,0,0,1-1.57,7.07,9.23,9.23,0,0,1-4.93,4.07,24.75,24.75,0,0,1-8.75,1.29q-2.91,0-6.22-.28t-6.21-.6v9.36q2.82.4,6.09.64t6.42.24q8.88,0,14.57-2.3a16.25,16.25,0,0,0,8.43-7.22q2.75-4.92,2.74-12.91V550.15Zm-1.86,22.28a12.75,12.75,0,0,1-1.62,6.61,11,11,0,0,1-4.27,4.2,12.09,12.09,0,0,1-5.89,1.45,11.93,11.93,0,0,1-6.26-1.61,11.16,11.16,0,0,1-4.23-4.6,15.08,15.08,0,0,1-1.54-7,15.24,15.24,0,0,1,1.54-7.1,11.48,11.48,0,0,1,4.23-4.65,11.77,11.77,0,0,1,6.26-1.65,13,13,0,0,1,5.81,1.33,10.82,10.82,0,0,1,4.31,3.92,11.36,11.36,0,0,1,1.66,6.29Z"/><path class="cls-1" d="M105.27,656.33a32.38,32.38,0,0,0-11-2.66l-5.17-.49c-2.9-.21-5-1-6.37-2.38a6.62,6.62,0,0,1-2-4.8,8.11,8.11,0,0,1,1.13-4.19,7.76,7.76,0,0,1,3.39-3.07,12.6,12.6,0,0,1,5.65-1.13,12.22,12.22,0,0,1,5.85,1.25,8.6,8.6,0,0,1,3.47,3.31,8.89,8.89,0,0,1,1.17,4.48h11.22a18.32,18.32,0,0,0-2.67-10,17.72,17.72,0,0,0-7.5-6.58,26.31,26.31,0,0,0-11.54-2.34A26.58,26.58,0,0,0,79.57,630a16.71,16.71,0,0,0-10.13,16,15.49,15.49,0,0,0,5,12.07q5.05,4.56,13.52,5.28l5.17.41q5.56.48,8.23,2.38a5.87,5.87,0,0,1,2.66,5,7.63,7.63,0,0,1-1.37,4.48,9.43,9.43,0,0,1-4.2,3.19,17.79,17.79,0,0,1-7,1.21,17.64,17.64,0,0,1-7.54-1.37,9.25,9.25,0,0,1-4.16-3.59,9,9,0,0,1-1.29-4.56H67.26a18,18,0,0,0,2.83,10,18.8,18.8,0,0,0,8.19,6.9,31.07,31.07,0,0,0,13.19,2.51,31.22,31.22,0,0,0,12.63-2.35,18.91,18.91,0,0,0,8.28-6.57,17,17,0,0,0,2.9-9.81,15.12,15.12,0,0,0-2.62-9A18,18,0,0,0,105.27,656.33Z"/><path class="cls-1" d="M136.75,632.2H126.26l0,12.35h-7v8.23h7l0,19.13q0,6.38,1.93,10.13a11,11,0,0,0,5.85,5.32,27,27,0,0,0,10,1.58h6.3v-9.61h-6.86a6,6,0,0,1-6.7-6.7l0-19.85h13.52v-8.23H136.72Z"/><path class="cls-1" d="M185.86,645.68a30.88,30.88,0,0,0-11.26-1.78c-1.45,0-3,0-4.64,0s-3.24.1-4.8.21-3,.21-4.2.32V654c1.5-.1,3.21-.2,5.12-.28s3.81-.15,5.69-.2,3.5-.08,4.85-.08q3.87,0,5.73,1.85t1.85,5.65v.41h-9a30.26,30.26,0,0,0-10.12,1.53,14.23,14.23,0,0,0-6.7,4.6,12.5,12.5,0,0,0-2.38,7.91,13.91,13.91,0,0,0,2,7.58,12.94,12.94,0,0,0,5.57,4.85,19.41,19.41,0,0,0,8.36,1.69,16.76,16.76,0,0,0,7.78-1.65,12.13,12.13,0,0,0,5-4.8,16.2,16.2,0,0,0,1.33-3.14v8.46h8.88v-27.2a19,19,0,0,0-2.3-9.92A13.47,13.47,0,0,0,185.86,645.68Zm-6.46,35a11,11,0,0,1-4.32.84,8.6,8.6,0,0,1-5.93-1.85,6.23,6.23,0,0,1-2.06-4.85,6.34,6.34,0,0,1,2.06-4.88,8.47,8.47,0,0,1,5.93-1.9h9.12v4.12a11.2,11.2,0,0,1-1.49,5.61A7.48,7.48,0,0,1,179.4,680.67Z"/><path class="cls-1" d="M231.33,643.18h-.48a15.84,15.84,0,0,0-8.76,2.26,13.66,13.66,0,0,0-5.28,6.74,21.7,21.7,0,0,0-1,3.19V644.55H207v43.82h11.22V662.63a9.23,9.23,0,0,1,2.54-6.82,9,9,0,0,1,6.66-2.54,8.15,8.15,0,0,1,6.33,2.5,9.23,9.23,0,0,1,2.3,6.53v26.07h11.22v-25.1q0-10-4-15T231.33,643.18Z"/><path class="cls-1" d="M291.7,650.8a15.52,15.52,0,0,0-5.53-5.4,18.1,18.1,0,0,0-9.08-2.22,20.48,20.48,0,0,0-8.51,1.73,19,19,0,0,0-6.54,4.81,22.18,22.18,0,0,0-4.2,7.18,25.67,25.67,0,0,0-1.49,8.79v1.7a25,25,0,0,0,1.53,8.84,22,22,0,0,0,4.36,7.14,19.84,19.84,0,0,0,6.7,4.76,20.9,20.9,0,0,0,8.47,1.69,19,19,0,0,0,9.24-2.22,16.57,16.57,0,0,0,6.58-6.69,17.2,17.2,0,0,0,.81-1.67v9.13h8.88V629.46H291.7Zm.32,17a13.25,13.25,0,0,1-1.65,6.74,11.3,11.3,0,0,1-4.4,4.36,12.41,12.41,0,0,1-6.05,1.49,11.66,11.66,0,0,1-10.74-6.49,15.73,15.73,0,0,1-1.61-7.31,16.22,16.22,0,0,1,1.57-7.34,11.6,11.6,0,0,1,10.78-6.62,12.87,12.87,0,0,1,6,1.41,11.42,11.42,0,0,1,4.44,4,11.72,11.72,0,0,1,1.69,6.49Z"/><path class="cls-1" d="M342,645.68a30.88,30.88,0,0,0-11.26-1.78c-1.45,0-3,0-4.64,0s-3.24.1-4.8.21-3,.21-4.2.32V654c1.51-.1,3.21-.2,5.12-.28s3.81-.15,5.69-.2,3.5-.08,4.85-.08q3.87,0,5.73,1.85t1.85,5.65v.41h-9a30.26,30.26,0,0,0-10.12,1.53,14.23,14.23,0,0,0-6.7,4.6,12.5,12.5,0,0,0-2.38,7.91,14,14,0,0,0,2,7.58,12.94,12.94,0,0,0,5.57,4.85,19.41,19.41,0,0,0,8.36,1.69,16.76,16.76,0,0,0,7.78-1.65,12.13,12.13,0,0,0,5-4.8,15.6,15.6,0,0,0,1.33-3.14v8.46h8.88v-27.2a19,19,0,0,0-2.3-9.92A13.47,13.47,0,0,0,342,645.68Zm-6.46,35a11,11,0,0,1-4.32.84,8.6,8.6,0,0,1-5.93-1.85,6.23,6.23,0,0,1-2.06-4.85,6.34,6.34,0,0,1,2.06-4.88,8.47,8.47,0,0,1,5.93-1.9h9.12v4.12a11.2,11.2,0,0,1-1.49,5.61A7.48,7.48,0,0,1,335.56,680.67Z"/><path class="cls-1" d="M375.79,648.83q-3.06,3.66-3.79,10V644.55h-8.88v43.82h11.22V665.53c0-3.82,1-6.74,3.11-8.75s5-3,8.75-3h3.07V644h-1.61Q379.83,644,375.79,648.83Z"/><path class="cls-1" d="M428.89,650.8a15.49,15.49,0,0,0-5.52-5.4,18.1,18.1,0,0,0-9.08-2.22,20.56,20.56,0,0,0-8.52,1.73,19.1,19.1,0,0,0-6.53,4.81,21.82,21.82,0,0,0-4.2,7.18,25.44,25.44,0,0,0-1.49,8.79v1.7a25,25,0,0,0,1.53,8.84,21.67,21.67,0,0,0,4.36,7.14,19.74,19.74,0,0,0,6.7,4.76,20.87,20.87,0,0,0,8.47,1.69,19,19,0,0,0,9.24-2.22,16.57,16.57,0,0,0,6.58-6.69,17.15,17.15,0,0,0,.8-1.67v9.13h8.88V629.46H428.89Zm.33,17a13.16,13.16,0,0,1-1.66,6.74,11.24,11.24,0,0,1-4.4,4.36,12.36,12.36,0,0,1-6.05,1.49,11.66,11.66,0,0,1-10.73-6.49,15.61,15.61,0,0,1-1.62-7.31,16.22,16.22,0,0,1,1.58-7.34,11.6,11.6,0,0,1,10.77-6.62,12.87,12.87,0,0,1,6,1.41,11.42,11.42,0,0,1,4.44,4,11.72,11.72,0,0,1,1.7,6.49Z"/><path class="cls-1" d="M483.49,666.1q-4.39-3.47-12.15-4.28l-3.87-.4a11.07,11.07,0,0,1-5.12-1.54,3.74,3.74,0,0,1-1.58-3.23,4.19,4.19,0,0,1,1.94-3.55,9.43,9.43,0,0,1,5.49-1.37,9.75,9.75,0,0,1,6.05,1.62,5.25,5.25,0,0,1,2.26,3.87H486.6c-.17-4.57-1.91-8-5.25-10.41s-7.69-3.55-13.07-3.55a24.8,24.8,0,0,0-9.16,1.57,13.88,13.88,0,0,0-6.26,4.64,12.51,12.51,0,0,0-2.26,7.59,11.3,11.3,0,0,0,4,9q3.94,3.39,11.3,4.19l3.87.41q4.35.4,6.17,1.69a4.06,4.06,0,0,1,1.82,3.47,4.45,4.45,0,0,1-2.38,4,12.26,12.26,0,0,1-6.42,1.45c-3.23,0-5.59-.62-7.1-1.86a6.15,6.15,0,0,1-2.5-4.11H449.23a13.12,13.12,0,0,0,5.37,10.61q5.11,3.83,14.16,3.83A26.3,26.3,0,0,0,478.85,688a15.46,15.46,0,0,0,6.66-5,12.29,12.29,0,0,0,2.38-7.54A11.3,11.3,0,0,0,483.49,666.1Z"/><path class="cls-1" d="M515.49,688.37V629.46h18.8l24.78,49.39h2.66l-1.61,1.45V629.46h10.81v58.91H552.05L527.27,639h-2.74l1.61-1.45v50.84Z"/><path class="cls-1" d="M625.24,665.13a24.66,24.66,0,0,0-2.42-10.85,19.67,19.67,0,0,0-7.22-8.16,21.48,21.48,0,0,0-11.9-3.1,22.64,22.64,0,0,0-9.53,1.89,20.4,20.4,0,0,0-6.9,5.09,21.73,21.73,0,0,0-4.19,7.26,25.38,25.38,0,0,0-1.42,8.43v1.54a24.53,24.53,0,0,0,1.42,8.23,22.83,22.83,0,0,0,4.19,7.3,20,20,0,0,0,7,5.21,26.07,26.07,0,0,0,19.54.08,18.29,18.29,0,0,0,7-5.25,18.67,18.67,0,0,0,3.71-7.91H614.19a7.39,7.39,0,0,1-3.31,4.08,12.27,12.27,0,0,1-6.7,1.65,11.8,11.8,0,0,1-6.78-1.81,10.83,10.83,0,0,1-3.95-5,17.72,17.72,0,0,1-1.13-4.64h32.92ZM597.4,654a11.22,11.22,0,0,1,6.3-1.69,11.08,11.08,0,0,1,6.17,1.61,9.65,9.65,0,0,1,3.67,4.6,16.29,16.29,0,0,1,1,3.79h-22a16.73,16.73,0,0,1,1-3.43A10.52,10.52,0,0,1,597.4,654Z"/><path class="cls-1" d="M646.47,632.2H636l0,12.35h-7v8.23h7l0,19.13q0,6.38,1.93,10.13a11.05,11.05,0,0,0,5.86,5.32,26.89,26.89,0,0,0,10,1.58H660v-9.61h-6.86a6,6,0,0,1-6.7-6.7l0-19.85H660v-8.23H646.44Z"/><polygon class="cls-1" points="714.84 679.17 713.14 679.17 705.62 646 692.71 646 686.2 679.17 684.51 679.17 675.52 644.55 664.63 644.55 676.57 688.37 681.09 688.37 684.4 688.37 686.9 688.37 689.97 688.37 692.63 688.37 699.07 656.96 706.35 688.37 709.17 688.37 712.73 688.37 715.23 688.37 718.05 688.37 722.41 688.37 732.98 644.55 722.82 644.55 714.84 679.17"/><path class="cls-1" d="M779.43,649.84a22,22,0,0,0-7.55-5,28.56,28.56,0,0,0-20,0,22,22,0,0,0-7.55,5,22.25,22.25,0,0,0-4.76,7.26,22.68,22.68,0,0,0-1.65,8.59v1.7a22.88,22.88,0,0,0,1.57,8.39,21.58,21.58,0,0,0,4.64,7.22,22,22,0,0,0,7.51,5,28.92,28.92,0,0,0,20.41,0,22.13,22.13,0,0,0,7.51-5,21.73,21.73,0,0,0,4.64-7.22,22.88,22.88,0,0,0,1.57-8.39v-1.7a23,23,0,0,0-1.61-8.59A21.82,21.82,0,0,0,779.43,649.84Zm-6.34,23.72a11.57,11.57,0,0,1-4.27,4.93,14.23,14.23,0,0,1-13.89,0,11.79,11.79,0,0,1-4.31-4.93,16,16,0,0,1-1.5-7.06,15.82,15.82,0,0,1,1.54-7.14,11.91,11.91,0,0,1,4.4-4.92,13.67,13.67,0,0,1,13.63,0,11.68,11.68,0,0,1,4.36,4.92,16.22,16.22,0,0,1,1.5,7.14A16.44,16.44,0,0,1,773.09,673.56Z"/><path class="cls-1" d="M808.28,648.83q-3.06,3.66-3.79,10V644.55h-8.88v43.82h11.22V665.53q0-5.73,3.1-8.75t8.76-3h3.07V644h-1.62Q812.31,644,808.28,648.83Z"/><polygon class="cls-1" points="854.14 663.23 869.05 644.55 857.35 644.55 840.48 665.65 840.48 629.46 829.26 629.46 829.26 688.37 840.48 688.37 840.48 667.87 845.24 667.87 859.93 688.37 872.6 688.37 854.14 663.23"/></svg>