<svg width="378" height="106" viewBox="0 0 378 106" fill="none" xmlns="http://www.w3.org/2000/svg">
<path fill-rule="evenodd" clip-rule="evenodd" d="M46.4817 0L0 50.2087L46.4817 101L94 49.8099L46.4817 0ZM48.2118 6.01125L89.0496 49.1557L57.4966 40.0014L48.2118 6.01125ZM6.27477 47.2986L29.6946 32.3918L44.5508 5.99559L6.27477 47.2986ZM38.0477 61.7601L61.5224 68.3721L46.4933 95.5568L38.0477 61.7601ZM45.1787 95.492L6.00969 52.7359L36.6509 61.3666L45.1787 95.492ZM45.745 97.7587L45.6056 97.9088L45.7828 97.9095L45.745 97.7587ZM88.997 50.319L64.2156 65.5202L57.9108 41.4727L88.997 50.319ZM55.0955 40.6716L61.6442 65.6496L37.3065 58.7944L31.0691 33.8343L55.0955 40.6716ZM85.0029 55.9501L51.4531 91.9324L64.0902 68.9051L85.0029 55.9501ZM4.70338 49.6266L35.9287 58.4202L29.8656 33.8762L4.70338 49.6266ZM54.7569 39.2169L45.9639 5.85296L31.144 32.4789L54.7569 39.2169Z" fill="url(#paint0_linear_2_2)"/>
<path d="M128.536 70.896C122.136 70.896 116.696 69.232 112.216 65.904L116.312 59.568C120.28 62.0853 124.163 63.344 127.96 63.344C130.392 63.344 132.291 62.96 133.656 62.192C135.064 61.424 135.768 60.272 135.768 58.736C135.768 57.7973 135.533 57.0293 135.064 56.432C134.637 55.792 133.848 55.1947 132.696 54.64C131.587 54.0427 129.901 53.296 127.64 52.4L126.168 51.824C123.437 50.7573 121.24 49.7333 119.576 48.752C117.912 47.7707 116.589 46.512 115.608 44.976C114.627 43.44 114.136 41.4987 114.136 39.152C114.136 36.5493 114.883 34.3947 116.376 32.688C117.869 30.9387 119.789 29.6587 122.136 28.848C124.483 28.0373 126.979 27.632 129.624 27.632C132.013 27.632 134.467 28.0373 136.984 28.848C139.544 29.616 141.976 30.768 144.28 32.304L140.12 38.576C138.072 37.3387 136.259 36.4427 134.68 35.888C133.101 35.3333 131.395 35.056 129.56 35.056C127.512 35.056 125.955 35.3973 124.888 36.08C123.864 36.7627 123.352 37.68 123.352 38.832C123.352 39.5573 123.565 40.2187 123.992 40.816C124.419 41.3707 125.187 41.9467 126.296 42.544C127.405 43.0987 129.005 43.76 131.096 44.528L132.504 45.04C135.235 46.064 137.432 47.024 139.096 47.92C140.803 48.816 142.232 50.096 143.384 51.76C144.536 53.424 145.112 55.5787 145.112 58.224C145.112 60.9973 144.387 63.344 142.936 65.264C141.485 67.1413 139.501 68.5493 136.984 69.488C134.509 70.4267 131.693 70.896 128.536 70.896ZM169.089 70.896C162.134 70.896 157.036 68.976 153.793 65.136C150.593 61.2533 148.993 56.0693 148.993 49.584C148.993 44.336 149.889 40.0907 151.681 36.848C153.473 33.5627 155.841 31.216 158.785 29.808C161.772 28.3573 165.121 27.632 168.833 27.632C171.436 27.632 173.825 27.952 176.001 28.592C178.177 29.1893 180.353 30.128 182.529 31.408L179.137 38.128C176.108 36.1653 172.822 35.184 169.281 35.184C162.07 35.184 158.465 39.8133 158.465 49.072C158.465 53.68 159.468 57.1787 161.473 59.568C163.478 61.9573 166.316 63.152 169.985 63.152C171.862 63.152 173.505 62.9173 174.913 62.448C176.321 61.936 177.793 61.232 179.329 60.336L182.849 66.736C180.545 68.1013 178.284 69.1467 176.065 69.872C173.889 70.5547 171.564 70.896 169.089 70.896ZM188.169 70V28.528H197.257V70H188.169ZM243.219 28.528V70H233.363L220.371 50.672C219.262 48.9653 218.323 47.4933 217.555 46.256C216.787 44.976 216.04 43.5467 215.315 41.968V70H206.419V28.528H216.211L230.355 49.776C230.526 50.032 230.91 50.6293 231.507 51.568C232.104 52.464 232.638 53.3173 233.107 54.128C233.619 54.9387 234.046 55.728 234.387 56.496V28.528H243.219ZM270.79 70.896C266.353 70.896 262.577 69.9787 259.462 68.144C256.39 66.3093 254.065 63.7707 252.486 60.528C250.907 57.2427 250.118 53.4453 250.118 49.136C250.118 44.3573 251.078 40.368 252.998 37.168C254.918 33.9253 257.457 31.536 260.614 30C263.814 28.4213 267.355 27.632 271.238 27.632C275.675 27.632 279.43 28.5493 282.502 30.384C285.617 32.2187 287.942 34.7787 289.478 38.064C291.057 41.3067 291.846 45.0827 291.846 49.392C291.846 54.1707 290.886 58.1813 288.966 61.424C287.089 64.624 284.55 67.0133 281.35 68.592C278.193 70.128 274.673 70.896 270.79 70.896ZM270.79 63.472C273.307 63.472 275.441 62.9173 277.19 61.808C278.982 60.656 280.305 59.0347 281.158 56.944C282.054 54.8107 282.502 52.3147 282.502 49.456C282.502 44.9333 281.542 41.4133 279.622 38.896C277.702 36.336 274.907 35.056 271.238 35.056C267.398 35.056 264.475 36.3147 262.47 38.832C260.465 41.3067 259.462 44.72 259.462 49.072C259.462 53.5947 260.422 57.136 262.342 59.696C264.262 62.2133 267.078 63.472 270.79 63.472ZM322.732 48.176C324.524 48.6453 326.017 49.392 327.212 50.416C328.449 51.3973 329.345 52.528 329.9 53.808C330.497 55.088 330.796 56.432 330.796 57.84C330.796 61.7227 329.43 64.7307 326.7 66.864C323.969 68.9547 320.065 70 314.988 70H298.732V28.528H313.9C317.185 28.528 319.958 28.9973 322.22 29.936C324.524 30.832 326.252 32.112 327.404 33.776C328.556 35.3973 329.132 37.3173 329.132 39.536C329.132 41.3707 328.598 43.0773 327.532 44.656C326.465 46.192 324.865 47.3653 322.732 48.176ZM307.82 35.696V45.36H312.876C317.569 45.36 319.916 43.6747 319.916 40.304C319.916 38.8107 319.382 37.68 318.316 36.912C317.292 36.1013 315.777 35.696 313.772 35.696H307.82ZM314.22 62.704C316.822 62.704 318.678 62.2347 319.788 61.296C320.897 60.3147 321.452 59.0133 321.452 57.392C321.452 55.8133 320.876 54.5547 319.724 53.616C318.572 52.6773 316.822 52.208 314.476 52.208H307.82V62.704H314.22ZM356.29 70.896C351.853 70.896 348.077 69.9787 344.962 68.144C341.89 66.3093 339.565 63.7707 337.986 60.528C336.407 57.2427 335.618 53.4453 335.618 49.136C335.618 44.3573 336.578 40.368 338.498 37.168C340.418 33.9253 342.957 31.536 346.114 30C349.314 28.4213 352.855 27.632 356.738 27.632C361.175 27.632 364.93 28.5493 368.002 30.384C371.117 32.2187 373.442 34.7787 374.978 38.064C376.557 41.3067 377.346 45.0827 377.346 49.392C377.346 54.1707 376.386 58.1813 374.466 61.424C372.589 64.624 370.05 67.0133 366.85 68.592C363.693 70.128 360.173 70.896 356.29 70.896ZM356.29 63.472C358.807 63.472 360.941 62.9173 362.69 61.808C364.482 60.656 365.805 59.0347 366.658 56.944C367.554 54.8107 368.002 52.3147 368.002 49.456C368.002 44.9333 367.042 41.4133 365.122 38.896C363.202 36.336 360.407 35.056 356.738 35.056C352.898 35.056 349.975 36.3147 347.97 38.832C345.965 41.3067 344.962 44.72 344.962 49.072C344.962 53.5947 345.922 57.136 347.842 59.696C349.762 62.2133 352.578 63.472 356.29 63.472Z" fill="#117499"/>
<defs>
<linearGradient id="paint0_linear_2_2" x1="-5.58007" y1="40.8914" x2="42.797" y2="101.38" gradientUnits="userSpaceOnUse">
<stop stop-color="#49B2D6"/>
<stop offset="1" stop-color="#0CCBEC"/>
</linearGradient>
</defs>
</svg>
