<?xml version="1.0"?>
<svg width="94" height="102" xmlns="http://www.w3.org/2000/svg" xmlns:svg="http://www.w3.org/2000/svg">
 <defs>
  <linearGradient id="paint0_linear_2_2" x1="-0.06" x2="0.46" y1="0.4" y2="1">
   <stop stop-color="#49B2D6"/>
   <stop offset="1" stop-color="#0CCBEC"/>
  </linearGradient>
 </defs>
 <g class="layer">
  <title>Layer 1</title>
  <path clip-rule="evenodd" d="m46.48,0l-46.48,50.21l46.48,50.79l47.52,-51.19l-47.52,-49.81zm1.73,6.01l40.84,43.15l-31.55,-9.16l-9.29,-33.99zm-41.94,41.29l23.42,-14.91l14.86,-26.39l-38.28,41.3zm31.78,14.46l23.47,6.61l-15.03,27.19l-8.44,-33.8zm7.13,33.73l-39.17,-42.75l30.64,8.63l8.53,34.12zm0.56,2.27l-0.13,0.15l0.17,0l-0.04,-0.15zm43.26,-47.44l-24.78,15.2l-6.31,-24.05l31.09,8.85zm-33.9,-9.65l6.54,24.98l-24.33,-6.86l-6.24,-24.96l24.03,6.84zm29.9,15.28l-33.55,35.98l12.64,-23.02l20.91,-12.96zm-80.3,-6.32l31.23,8.79l-6.06,-24.54l-25.17,15.75zm50.06,-10.41l-8.8,-33.37l-14.82,26.63l23.62,6.74z" fill="url(#paint0_linear_2_2)" fill-rule="evenodd" id="svg_1"/>
 </g>
</svg>